<svg xmlns="http://www.w3.org/2000/svg" xmlns:xlink="http://www.w3.org/1999/xlink" width="500" zoomAndPan="magnify" viewBox="0 0 375 374.999991" height="500" preserveAspectRatio="xMidYMid meet" version="1.0"><defs><clipPath id="86ac2b05fa"><path d="M 32.136719 32.136719 L 342.636719 32.136719 L 342.636719 342.636719 L 32.136719 342.636719 Z M 32.136719 32.136719 " clip-rule="nonzero"/></clipPath></defs><path fill="#ffffff" d="M 240.726562 155.851562 L 231.808594 155.851562 L 231.808594 113.992188 C 231.808594 99 219.609375 86.800781 204.617188 86.800781 L 170.378906 86.800781 C 155.390625 86.800781 143.191406 99 143.191406 113.992188 L 143.191406 155.851562 L 134.273438 155.851562 C 124.738281 155.851562 117.011719 163.578125 117.011719 173.113281 L 117.011719 257.125 C 117.011719 266.65625 124.738281 274.386719 134.273438 274.386719 L 240.726562 274.386719 C 250.257812 274.386719 257.988281 266.65625 257.988281 257.125 L 257.988281 173.113281 C 257.988281 163.578125 250.257812 155.851562 240.726562 155.851562 Z M 157 113.992188 C 157 106.613281 163.003906 100.613281 170.378906 100.613281 L 204.617188 100.613281 C 211.996094 100.613281 217.996094 106.613281 217.996094 113.992188 L 217.996094 154.699219 L 157.003906 154.699219 L 157.003906 113.992188 Z M 196.53125 245.148438 C 196.699219 246.265625 195.832031 247.269531 194.703125 247.269531 L 180.292969 247.269531 C 179.164062 247.269531 178.300781 246.265625 178.464844 245.148438 L 181.738281 223.242188 C 178.011719 220.957031 175.710938 216.570312 176.625 211.699219 C 177.445312 207.300781 181.0625 203.714844 185.464844 202.929688 C 192.480469 201.679688 198.578125 207.042969 198.578125 213.824219 C 198.578125 217.824219 196.4375 221.296875 193.261719 223.242188 Z M 196.53125 245.148438 " fill-opacity="1" fill-rule="nonzero"/><g clip-path="url(#86ac2b05fa)"><path fill="#ffffff" d="M 187.5 32.136719 C 101.832031 32.136719 32.136719 101.832031 32.136719 187.5 C 32.136719 273.164062 101.832031 342.859375 187.5 342.859375 C 273.164062 342.859375 342.859375 273.164062 342.859375 187.5 C 342.859375 101.832031 273.164062 32.136719 187.5 32.136719 Z M 187.5 329.050781 C 109.449219 329.050781 45.945312 265.550781 45.945312 187.5 C 45.945312 109.449219 109.449219 45.945312 187.5 45.945312 C 265.550781 45.945312 329.050781 109.449219 329.050781 187.5 C 329.050781 265.550781 265.550781 329.050781 187.5 329.050781 Z M 187.5 329.050781 " fill-opacity="1" fill-rule="nonzero"/></g></svg>