<svg xmlns="http://www.w3.org/2000/svg" xmlns:xlink="http://www.w3.org/1999/xlink" width="500" zoomAndPan="magnify" viewBox="0 0 375 374.999991" height="500" preserveAspectRatio="xMidYMid meet" version="1.0"><defs><clipPath id="2442bffdce"><path d="M 81 30 L 293.816406 30 L 293.816406 345 L 81 345 Z M 81 30 " clip-rule="nonzero"/></clipPath><clipPath id="bbfabea358"><path d="M 212.601562 172.890625 L 191.808594 160.875 L 214.800781 147.597656 L 235.59375 159.613281 L 279.4375 184.972656 C 287.414062 189.878906 290.554688 199.949219 286.660156 208.566406 C 290.808594 204.351562 293.132812 198.816406 293.507812 193.152344 C 293.761719 189.628906 293.195312 186.042969 291.875 182.644531 C 289.867188 177.234375 286.035156 172.703125 280.632812 169.621094 L 249.472656 151.5625 L 218.253906 133.503906 L 214.738281 131.488281 L 211.21875 133.503906 L 174.28125 154.832031 L 163.855469 160.875 L 174.28125 166.914062 L 198.53125 180.945312 L 256.257812 214.355469 L 172.839844 262.617188 C 165.867188 266.644531 159.207031 268.972656 151.292969 270.105469 C 150.789062 270.167969 150.351562 270.292969 149.847656 270.417969 C 143.503906 272.054688 139.671875 278.726562 141.429688 285.269531 C 143.1875 291.75 149.847656 295.589844 156.316406 293.890625 C 158.957031 293.195312 161.152344 291.6875 162.726562 289.671875 C 167.6875 283.320312 173.027344 278.726562 180 274.699219 L 270.390625 222.410156 L 272.84375 223.792969 C 275.039062 225.054688 276.800781 226.816406 277.929688 228.765625 C 279.0625 230.714844 279.6875 233.105469 279.6875 235.6875 C 279.6875 238.265625 279.0625 240.59375 277.929688 242.609375 C 276.738281 244.621094 275.039062 246.320312 272.84375 247.578125 L 159.457031 313.082031 C 152.484375 317.105469 145.828125 319.433594 137.910156 320.566406 C 137.410156 320.632812 136.96875 320.757812 136.46875 320.882812 C 129.996094 322.644531 126.164062 329.3125 127.863281 335.796875 C 129.621094 342.277344 136.277344 346.113281 142.75 344.414062 C 145.386719 343.722656 147.585938 342.214844 149.15625 340.199219 C 154.117188 333.84375 159.457031 329.25 166.429688 325.222656 L 279.753906 259.660156 C 284.148438 257.144531 287.605469 253.683594 289.929688 249.59375 C 292.316406 245.441406 293.570312 240.71875 293.570312 235.75 C 293.570312 230.714844 292.316406 226.058594 289.929688 221.90625 C 287.542969 217.753906 284.085938 214.292969 279.753906 211.777344 L 273.847656 208.378906 L 270.390625 206.367188 Z M 162.160156 202.085938 L 104.429688 168.675781 L 100.976562 166.664062 L 95.070312 163.265625 C 90.738281 160.746094 87.28125 157.285156 84.894531 153.132812 C 82.507812 148.980469 81.25 144.261719 81.25 139.292969 C 81.25 134.257812 82.507812 129.601562 84.894531 125.449219 C 87.28125 121.359375 90.675781 117.898438 95.070312 115.382812 L 208.328125 49.816406 C 215.300781 45.789062 220.640625 41.195312 225.605469 34.839844 C 227.175781 32.828125 229.375 31.316406 232.011719 30.625 C 238.480469 28.863281 245.140625 32.765625 246.898438 39.246094 C 248.65625 45.726562 244.761719 52.398438 238.292969 54.160156 C 237.789062 54.285156 237.351562 54.410156 236.847656 54.472656 C 228.871094 55.605469 222.273438 57.933594 215.300781 61.960938 L 101.980469 127.398438 C 99.78125 128.65625 98.085938 130.355469 96.894531 132.371094 C 95.761719 134.320312 95.132812 136.710938 95.132812 139.292969 C 95.132812 141.871094 95.761719 144.261719 96.894531 146.210938 C 98.023438 148.164062 99.78125 149.925781 101.980469 151.183594 L 104.429688 152.628906 L 194.824219 100.34375 C 201.796875 96.316406 207.136719 91.722656 212.097656 85.367188 C 213.667969 83.355469 215.867188 81.84375 218.503906 81.152344 C 224.976562 79.390625 231.632812 83.292969 233.394531 89.773438 C 235.152344 96.253906 231.257812 102.921875 224.789062 104.683594 C 224.285156 104.808594 223.84375 104.9375 223.34375 105 C 215.363281 106.132812 208.769531 108.460938 201.796875 112.488281 L 118.3125 160.683594 L 176.042969 194.097656 L 200.289062 208.128906 L 210.714844 214.167969 L 200.289062 220.207031 L 163.414062 241.476562 L 159.898438 243.488281 L 156.378906 241.476562 L 125.160156 223.417969 L 94.003906 205.359375 C 88.664062 202.277344 84.832031 197.746094 82.757812 192.335938 C 81.441406 188.9375 80.875 185.351562 81.125 181.828125 C 81.503906 176.164062 83.890625 170.625 87.972656 166.410156 C 84.078125 175.03125 87.21875 185.097656 95.195312 190.007812 L 139.042969 215.363281 L 159.835938 227.382812 L 182.824219 214.105469 Z M 150.285156 285.710938 C 148.277344 284.136719 147.960938 281.242188 149.53125 279.230469 C 151.105469 277.214844 153.992188 276.902344 156.003906 278.472656 C 158.011719 280.046875 158.328125 282.941406 156.757812 284.953125 C 155.1875 286.96875 152.296875 287.28125 150.285156 285.710938 Z M 136.71875 336.234375 C 134.707031 334.664062 134.394531 331.769531 135.964844 329.753906 C 137.535156 327.742188 140.425781 327.425781 142.433594 329 C 144.445312 330.574219 144.757812 333.46875 143.1875 335.480469 C 141.617188 337.429688 138.730469 337.808594 136.71875 336.234375 Z M 224.472656 89.269531 C 222.464844 87.695312 219.574219 88.011719 218.003906 90.023438 C 216.433594 92.039062 216.746094 94.933594 218.757812 96.503906 C 220.765625 98.078125 223.65625 97.761719 225.226562 95.75 C 226.796875 93.734375 226.421875 90.839844 224.472656 89.269531 Z M 237.980469 38.742188 C 235.96875 37.167969 233.078125 37.484375 231.507812 39.496094 C 229.9375 41.511719 230.253906 44.40625 232.261719 45.980469 C 234.273438 47.550781 237.164062 47.238281 238.734375 45.222656 C 240.304688 43.210938 239.988281 40.316406 237.980469 38.742188 Z M 237.980469 38.742188 " clip-rule="evenodd"/></clipPath><linearGradient x1="169.13901" gradientTransform="matrix(0.628166, 0, 0, 0.629215, 81.125842, 30.185489)" y1="-2.099989" x2="169.13901" gradientUnits="userSpaceOnUse" y2="502.100001" id="aae28550bd"><stop stop-opacity="1" stop-color="rgb(30.421448%, 68.234253%, 66.481018%)" offset="0"/><stop stop-opacity="1" stop-color="rgb(30.354309%, 68.135071%, 66.48407%)" offset="0.0078125"/><stop stop-opacity="1" stop-color="rgb(30.221558%, 67.939758%, 66.490173%)" offset="0.015625"/><stop stop-opacity="1" stop-color="rgb(30.088806%, 67.74292%, 66.496277%)" offset="0.0234375"/><stop stop-opacity="1" stop-color="rgb(29.957581%, 67.546082%, 66.503906%)" offset="0.03125"/><stop stop-opacity="1" stop-color="rgb(29.824829%, 67.349243%, 66.51001%)" offset="0.0390625"/><stop stop-opacity="1" stop-color="rgb(29.692078%, 67.152405%, 66.516113%)" offset="0.046875"/><stop stop-opacity="1" stop-color="rgb(29.559326%, 66.955566%, 66.523743%)" offset="0.0546875"/><stop stop-opacity="1" stop-color="rgb(29.428101%, 66.758728%, 66.529846%)" offset="0.0625"/><stop stop-opacity="1" stop-color="rgb(29.295349%, 66.56189%, 66.53595%)" offset="0.0703125"/><stop stop-opacity="1" stop-color="rgb(29.162598%, 66.365051%, 66.542053%)" offset="0.078125"/><stop stop-opacity="1" stop-color="rgb(29.029846%, 66.169739%, 66.549683%)" offset="0.0859375"/><stop stop-opacity="1" stop-color="rgb(28.898621%, 65.9729%, 66.555786%)" offset="0.09375"/><stop stop-opacity="1" stop-color="rgb(28.765869%, 65.776062%, 66.56189%)" offset="0.101562"/><stop stop-opacity="1" stop-color="rgb(28.633118%, 65.579224%, 66.569519%)" offset="0.109375"/><stop stop-opacity="1" stop-color="rgb(28.500366%, 65.382385%, 66.575623%)" offset="0.117187"/><stop stop-opacity="1" stop-color="rgb(28.367615%, 65.185547%, 66.581726%)" offset="0.125"/><stop stop-opacity="1" stop-color="rgb(28.236389%, 64.988708%, 66.58783%)" offset="0.132813"/><stop stop-opacity="1" stop-color="rgb(28.103638%, 64.79187%, 66.595459%)" offset="0.140625"/><stop stop-opacity="1" stop-color="rgb(27.970886%, 64.595032%, 66.601562%)" offset="0.148437"/><stop stop-opacity="1" stop-color="rgb(27.838135%, 64.399719%, 66.607666%)" offset="0.15625"/><stop stop-opacity="1" stop-color="rgb(27.706909%, 64.202881%, 66.615295%)" offset="0.164062"/><stop stop-opacity="1" stop-color="rgb(27.574158%, 64.006042%, 66.621399%)" offset="0.171875"/><stop stop-opacity="1" stop-color="rgb(27.441406%, 63.809204%, 66.627502%)" offset="0.179688"/><stop stop-opacity="1" stop-color="rgb(27.308655%, 63.612366%, 66.633606%)" offset="0.1875"/><stop stop-opacity="1" stop-color="rgb(27.177429%, 63.415527%, 66.641235%)" offset="0.195312"/><stop stop-opacity="1" stop-color="rgb(27.044678%, 63.218689%, 66.647339%)" offset="0.203125"/><stop stop-opacity="1" stop-color="rgb(26.911926%, 63.021851%, 66.653442%)" offset="0.210938"/><stop stop-opacity="1" stop-color="rgb(26.779175%, 62.825012%, 66.661072%)" offset="0.21875"/><stop stop-opacity="1" stop-color="rgb(26.647949%, 62.6297%, 66.667175%)" offset="0.226562"/><stop stop-opacity="1" stop-color="rgb(26.515198%, 62.432861%, 66.673279%)" offset="0.234375"/><stop stop-opacity="1" stop-color="rgb(26.382446%, 62.236023%, 66.679382%)" offset="0.242188"/><stop stop-opacity="1" stop-color="rgb(26.249695%, 62.039185%, 66.687012%)" offset="0.25"/><stop stop-opacity="1" stop-color="rgb(26.118469%, 61.842346%, 66.693115%)" offset="0.257812"/><stop stop-opacity="1" stop-color="rgb(25.985718%, 61.645508%, 66.699219%)" offset="0.265625"/><stop stop-opacity="1" stop-color="rgb(25.852966%, 61.448669%, 66.706848%)" offset="0.273438"/><stop stop-opacity="1" stop-color="rgb(25.720215%, 61.251831%, 66.712952%)" offset="0.28125"/><stop stop-opacity="1" stop-color="rgb(25.588989%, 61.054993%, 66.719055%)" offset="0.289063"/><stop stop-opacity="1" stop-color="rgb(25.456238%, 60.85968%, 66.725159%)" offset="0.296875"/><stop stop-opacity="1" stop-color="rgb(25.323486%, 60.662842%, 66.732788%)" offset="0.304688"/><stop stop-opacity="1" stop-color="rgb(25.190735%, 60.466003%, 66.738892%)" offset="0.3125"/><stop stop-opacity="1" stop-color="rgb(25.059509%, 60.269165%, 66.744995%)" offset="0.320313"/><stop stop-opacity="1" stop-color="rgb(24.926758%, 60.072327%, 66.752625%)" offset="0.328125"/><stop stop-opacity="1" stop-color="rgb(24.794006%, 59.875488%, 66.758728%)" offset="0.335938"/><stop stop-opacity="1" stop-color="rgb(24.661255%, 59.67865%, 66.764832%)" offset="0.34375"/><stop stop-opacity="1" stop-color="rgb(24.530029%, 59.481812%, 66.770935%)" offset="0.351562"/><stop stop-opacity="1" stop-color="rgb(24.397278%, 59.284973%, 66.778564%)" offset="0.359375"/><stop stop-opacity="1" stop-color="rgb(24.264526%, 59.089661%, 66.784668%)" offset="0.367188"/><stop stop-opacity="1" stop-color="rgb(24.131775%, 58.892822%, 66.790771%)" offset="0.375"/><stop stop-opacity="1" stop-color="rgb(23.999023%, 58.695984%, 66.798401%)" offset="0.382812"/><stop stop-opacity="1" stop-color="rgb(23.867798%, 58.499146%, 66.804504%)" offset="0.390625"/><stop stop-opacity="1" stop-color="rgb(23.735046%, 58.302307%, 66.810608%)" offset="0.398438"/><stop stop-opacity="1" stop-color="rgb(23.602295%, 58.105469%, 66.816711%)" offset="0.40625"/><stop stop-opacity="1" stop-color="rgb(23.469543%, 57.90863%, 66.824341%)" offset="0.414062"/><stop stop-opacity="1" stop-color="rgb(23.338318%, 57.711792%, 66.830444%)" offset="0.421875"/><stop stop-opacity="1" stop-color="rgb(23.205566%, 57.514954%, 66.836548%)" offset="0.429688"/><stop stop-opacity="1" stop-color="rgb(23.072815%, 57.319641%, 66.844177%)" offset="0.4375"/><stop stop-opacity="1" stop-color="rgb(22.940063%, 57.122803%, 66.850281%)" offset="0.445312"/><stop stop-opacity="1" stop-color="rgb(22.808838%, 56.925964%, 66.856384%)" offset="0.453125"/><stop stop-opacity="1" stop-color="rgb(22.676086%, 56.729126%, 66.862488%)" offset="0.460938"/><stop stop-opacity="1" stop-color="rgb(22.543335%, 56.532288%, 66.870117%)" offset="0.46875"/><stop stop-opacity="1" stop-color="rgb(22.410583%, 56.335449%, 66.876221%)" offset="0.476562"/><stop stop-opacity="1" stop-color="rgb(22.279358%, 56.138611%, 66.882324%)" offset="0.484375"/><stop stop-opacity="1" stop-color="rgb(22.146606%, 55.941772%, 66.889954%)" offset="0.492188"/><stop stop-opacity="1" stop-color="rgb(22.013855%, 55.744934%, 66.896057%)" offset="0.5"/><stop stop-opacity="1" stop-color="rgb(21.881104%, 55.549622%, 66.902161%)" offset="0.507813"/><stop stop-opacity="1" stop-color="rgb(21.749878%, 55.352783%, 66.908264%)" offset="0.515625"/><stop stop-opacity="1" stop-color="rgb(21.617126%, 55.155945%, 66.915894%)" offset="0.523438"/><stop stop-opacity="1" stop-color="rgb(21.484375%, 54.959106%, 66.921997%)" offset="0.53125"/><stop stop-opacity="1" stop-color="rgb(21.351624%, 54.762268%, 66.928101%)" offset="0.539062"/><stop stop-opacity="1" stop-color="rgb(21.220398%, 54.56543%, 66.93573%)" offset="0.546875"/><stop stop-opacity="1" stop-color="rgb(21.087646%, 54.368591%, 66.941833%)" offset="0.554688"/><stop stop-opacity="1" stop-color="rgb(20.954895%, 54.171753%, 66.947937%)" offset="0.5625"/><stop stop-opacity="1" stop-color="rgb(20.822144%, 53.974915%, 66.954041%)" offset="0.570312"/><stop stop-opacity="1" stop-color="rgb(20.690918%, 53.779602%, 66.96167%)" offset="0.578125"/><stop stop-opacity="1" stop-color="rgb(20.558167%, 53.582764%, 66.967773%)" offset="0.585938"/><stop stop-opacity="1" stop-color="rgb(20.425415%, 53.385925%, 66.973877%)" offset="0.59375"/><stop stop-opacity="1" stop-color="rgb(20.292664%, 53.189087%, 66.981506%)" offset="0.601563"/><stop stop-opacity="1" stop-color="rgb(20.159912%, 52.992249%, 66.98761%)" offset="0.609375"/><stop stop-opacity="1" stop-color="rgb(20.028687%, 52.79541%, 66.993713%)" offset="0.617188"/><stop stop-opacity="1" stop-color="rgb(19.895935%, 52.598572%, 66.999817%)" offset="0.625"/><stop stop-opacity="1" stop-color="rgb(19.763184%, 52.401733%, 67.007446%)" offset="0.632812"/><stop stop-opacity="1" stop-color="rgb(19.630432%, 52.204895%, 67.01355%)" offset="0.640625"/><stop stop-opacity="1" stop-color="rgb(19.499207%, 52.009583%, 67.019653%)" offset="0.648438"/><stop stop-opacity="1" stop-color="rgb(19.366455%, 51.812744%, 67.027283%)" offset="0.65625"/><stop stop-opacity="1" stop-color="rgb(19.233704%, 51.615906%, 67.033386%)" offset="0.664063"/><stop stop-opacity="1" stop-color="rgb(19.100952%, 51.419067%, 67.03949%)" offset="0.671875"/><stop stop-opacity="1" stop-color="rgb(18.969727%, 51.222229%, 67.045593%)" offset="0.679688"/><stop stop-opacity="1" stop-color="rgb(18.836975%, 51.025391%, 67.053223%)" offset="0.6875"/><stop stop-opacity="1" stop-color="rgb(18.704224%, 50.828552%, 67.059326%)" offset="0.695313"/><stop stop-opacity="1" stop-color="rgb(18.571472%, 50.631714%, 67.06543%)" offset="0.703125"/><stop stop-opacity="1" stop-color="rgb(18.440247%, 50.434875%, 67.073059%)" offset="0.710938"/><stop stop-opacity="1" stop-color="rgb(18.307495%, 50.239563%, 67.079163%)" offset="0.71875"/><stop stop-opacity="1" stop-color="rgb(18.174744%, 50.042725%, 67.085266%)" offset="0.726563"/><stop stop-opacity="1" stop-color="rgb(18.041992%, 49.845886%, 67.09137%)" offset="0.734375"/><stop stop-opacity="1" stop-color="rgb(17.910767%, 49.649048%, 67.098999%)" offset="0.742188"/><stop stop-opacity="1" stop-color="rgb(17.778015%, 49.452209%, 67.105103%)" offset="0.75"/><stop stop-opacity="1" stop-color="rgb(17.645264%, 49.255371%, 67.111206%)" offset="0.757812"/><stop stop-opacity="1" stop-color="rgb(17.512512%, 49.058533%, 67.11731%)" offset="0.765625"/><stop stop-opacity="1" stop-color="rgb(17.381287%, 48.861694%, 67.124939%)" offset="0.773438"/><stop stop-opacity="1" stop-color="rgb(17.248535%, 48.666382%, 67.131042%)" offset="0.78125"/><stop stop-opacity="1" stop-color="rgb(17.115784%, 48.469543%, 67.137146%)" offset="0.789062"/><stop stop-opacity="1" stop-color="rgb(16.983032%, 48.272705%, 67.144775%)" offset="0.796875"/><stop stop-opacity="1" stop-color="rgb(16.851807%, 48.075867%, 67.150879%)" offset="0.804688"/><stop stop-opacity="1" stop-color="rgb(16.719055%, 47.879028%, 67.156982%)" offset="0.8125"/><stop stop-opacity="1" stop-color="rgb(16.586304%, 47.68219%, 67.163086%)" offset="0.820313"/><stop stop-opacity="1" stop-color="rgb(16.453552%, 47.485352%, 67.170715%)" offset="0.828125"/><stop stop-opacity="1" stop-color="rgb(16.320801%, 47.288513%, 67.176819%)" offset="0.835938"/><stop stop-opacity="1" stop-color="rgb(16.189575%, 47.091675%, 67.182922%)" offset="0.84375"/><stop stop-opacity="1" stop-color="rgb(16.056824%, 46.896362%, 67.190552%)" offset="0.851562"/><stop stop-opacity="1" stop-color="rgb(15.924072%, 46.699524%, 67.196655%)" offset="0.859375"/><stop stop-opacity="1" stop-color="rgb(15.791321%, 46.502686%, 67.202759%)" offset="0.867188"/><stop stop-opacity="1" stop-color="rgb(15.660095%, 46.305847%, 67.208862%)" offset="0.875"/><stop stop-opacity="1" stop-color="rgb(15.527344%, 46.109009%, 67.216492%)" offset="0.882812"/><stop stop-opacity="1" stop-color="rgb(15.394592%, 45.91217%, 67.222595%)" offset="0.890625"/><stop stop-opacity="1" stop-color="rgb(15.261841%, 45.715332%, 67.228699%)" offset="0.898438"/><stop stop-opacity="1" stop-color="rgb(15.130615%, 45.518494%, 67.236328%)" offset="0.90625"/><stop stop-opacity="1" stop-color="rgb(14.997864%, 45.321655%, 67.242432%)" offset="0.914062"/><stop stop-opacity="1" stop-color="rgb(14.865112%, 45.126343%, 67.248535%)" offset="0.921875"/><stop stop-opacity="1" stop-color="rgb(14.732361%, 44.929504%, 67.254639%)" offset="0.929688"/><stop stop-opacity="1" stop-color="rgb(14.601135%, 44.732666%, 67.262268%)" offset="0.9375"/><stop stop-opacity="1" stop-color="rgb(14.468384%, 44.535828%, 67.268372%)" offset="0.945313"/><stop stop-opacity="1" stop-color="rgb(14.335632%, 44.338989%, 67.274475%)" offset="0.953125"/><stop stop-opacity="1" stop-color="rgb(14.202881%, 44.142151%, 67.282104%)" offset="0.960938"/><stop stop-opacity="1" stop-color="rgb(14.071655%, 43.945312%, 67.288208%)" offset="0.96875"/><stop stop-opacity="1" stop-color="rgb(13.938904%, 43.748474%, 67.294312%)" offset="0.976562"/><stop stop-opacity="1" stop-color="rgb(13.806152%, 43.551636%, 67.300415%)" offset="0.984375"/><stop stop-opacity="1" stop-color="rgb(13.673401%, 43.356323%, 67.308044%)" offset="0.992188"/><stop stop-opacity="1" stop-color="rgb(13.542175%, 43.159485%, 67.314148%)" offset="1"/></linearGradient></defs><g clip-path="url(#2442bffdce)"><g clip-path="url(#bbfabea358)"><path fill="url(#aae28550bd)" d="M 80.875 28.863281 L 80.875 346.113281 L 293.761719 346.113281 L 293.761719 28.863281 Z M 80.875 28.863281 " fill-rule="nonzero"/></g></g></svg>